<svg xmlns="http://www.w3.org/2000/svg" viewBox="0 0 760 280" font-family="'Segoe UI', system-ui, -apple-system, sans-serif">
  <defs>
    <linearGradient id="bg" x1="0" y1="0" x2="1" y2="1">
      <stop offset="0%" stop-color="#0a0e27"/>
      <stop offset="100%" stop-color="#1a1a3e"/>
    </linearGradient>
  </defs>

  <rect width="760" height="280" fill="url(#bg)" rx="12"/>

  <!-- Phase 1 -->
  <g transform="translate(30, 30)">
    <rect x="0" y="0" width="200" height="110" rx="10" fill="#0f2040" stroke="#3b82f6" stroke-width="1.5"/>
    <text x="100" y="26" fill="#60a5fa" font-size="14" font-weight="700" text-anchor="middle">Phase 1</text>
    <text x="100" y="44" fill="#93c5fd" font-size="10" text-anchor="middle">Server start</text>
    <line x1="20" y1="52" x2="180" y2="52" stroke="#1e3a5f" stroke-width="0.5"/>
    <text x="100" y="70" fill="#ccd6f6" font-size="10" text-anchor="middle">3 tools</text>
    <text x="100" y="86" fill="#8892b0" font-size="8" text-anchor="middle">open_sphere</text>
    <text x="100" y="98" fill="#8892b0" font-size="8" text-anchor="middle">close_sphere · get_session_stats</text>
  </g>

  <!-- Arrow 1→2 -->
  <g transform="translate(238, 85)">
    <line x1="0" y1="0" x2="44" y2="0" stroke="#f59e0b" stroke-width="2"/>
    <polygon points="44,-5 54,0 44,5" fill="#f59e0b"/>
    <text x="27" y="-8" fill="#fbbf24" font-size="9" font-weight="600" text-anchor="middle">open_sphere</text>
  </g>

  <!-- Phase 2 -->
  <g transform="translate(300, 30)">
    <rect x="0" y="0" width="200" height="110" rx="10" fill="#1a1500" stroke="#f59e0b" stroke-width="1.5"/>
    <text x="100" y="26" fill="#fbbf24" font-size="14" font-weight="700" text-anchor="middle">Phase 2</text>
    <text x="100" y="44" fill="#fcd34d" font-size="10" text-anchor="middle">Sphere open</text>
    <line x1="20" y1="52" x2="180" y2="52" stroke="#3a2a00" stroke-width="0.5"/>
    <text x="100" y="70" fill="#ccd6f6" font-size="10" text-anchor="middle">16 tools</text>
    <text x="100" y="86" fill="#8892b0" font-size="8" text-anchor="middle">detect_pattern (smart mode)</text>
    <text x="100" y="98" fill="#8892b0" font-size="8" text-anchor="middle">sphere_overview (manual mode)</text>
  </g>

  <!-- Arrow 2→3 -->
  <g transform="translate(508, 85)">
    <line x1="0" y1="0" x2="44" y2="0" stroke="#2ed573" stroke-width="2"/>
    <polygon points="44,-5 54,0 44,5" fill="#2ed573"/>
    <text x="27" y="-8" fill="#2ed573" font-size="9" font-weight="600" text-anchor="middle">sphere_overview</text>
  </g>

  <!-- Phase 3 -->
  <g transform="translate(570, 30)">
    <rect x="0" y="0" width="170" height="110" rx="10" fill="#001a0a" stroke="#2ed573" stroke-width="1.5"/>
    <text x="85" y="26" fill="#2ed573" font-size="14" font-weight="700" text-anchor="middle">Phase 3</text>
    <text x="85" y="44" fill="#6ee7b7" font-size="10" text-anchor="middle">Full manual</text>
    <line x1="15" y1="52" x2="155" y2="52" stroke="#003a1a" stroke-width="0.5"/>
    <text x="85" y="70" fill="#ccd6f6" font-size="10" text-anchor="middle">40–66 tools</text>
    <text x="85" y="86" fill="#8892b0" font-size="8" text-anchor="middle">navigation · geometry</text>
    <text x="85" y="98" fill="#8892b0" font-size="8" text-anchor="middle">analysis · detection · ...</text>
  </g>

  <!-- Bottom: Smart vs Manual -->
  <g transform="translate(30, 165)">
    <rect x="0" y="0" width="340" height="85" rx="10" fill="#1a1500" stroke="#f59e0b" stroke-width="1"/>
    <text x="170" y="24" fill="#fbbf24" font-size="13" font-weight="700" text-anchor="middle">Smart Mode</text>
    <text x="170" y="42" fill="#ccd6f6" font-size="10" text-anchor="middle">detect_pattern("find anomalous accounts")</text>
    <text x="170" y="58" fill="#8892b0" font-size="9" text-anchor="middle">39 step handlers · server-side chaining</text>
    <text x="170" y="72" fill="#8892b0" font-size="9" text-anchor="middle">1 round-trip → filtered, interpreted results</text>
  </g>

  <g transform="translate(390, 165)">
    <rect x="0" y="0" width="340" height="85" rx="10" fill="#001a0a" stroke="#2ed573" stroke-width="1"/>
    <text x="170" y="24" fill="#2ed573" font-size="13" font-weight="700" text-anchor="middle">Manual Mode</text>
    <text x="170" y="42" fill="#ccd6f6" font-size="10" text-anchor="middle">sphere_overview → find_anomalies → explain</text>
    <text x="170" y="58" fill="#8892b0" font-size="9" text-anchor="middle">66 tools · agent-driven exploration</text>
    <text x="170" y="72" fill="#8892b0" font-size="9" text-anchor="middle">full control over each step</text>
  </g>
</svg>
